<svg xmlns="http://www.w3.org/2000/svg" width="19.947" height="24.668" viewBox="0 0 19.947 24.668">
  <g id="Group_3786" data-name="Group 3786" transform="translate(719.309 -274.146)">
    <path id="Path_9508" data-name="Path 9508" d="M-707.587,298.814c-.456-.079-.918-.132-1.366-.242a7.5,7.5,0,0,1-4.745-3.377c-1.5-2.371-2.938-4.783-4.626-7.029-.149-.2-.3-.393-.46-.587a1.96,1.96,0,0,1-.376-2.068,2.181,2.181,0,0,1,1.777-1.342,2.309,2.309,0,0,1,2.14.78c.49.507.968,1.026,1.45,1.54.062.067.121.137.23.262v-.332q0-3.383,0-6.767a2.34,2.34,0,0,1,.876-1.943,2.165,2.165,0,0,1,2.011-.408c.053.014.107.023.2.043,0-.165.009-.313,0-.46a2.536,2.536,0,0,1,2.086-2.709c.013,0,.024-.019.036-.029h.673a1.216,1.216,0,0,0,.132.046,2.381,2.381,0,0,1,1.68,1.244,8.473,8.473,0,0,1,.384,1.077c.048-.014.138-.037.227-.065a2.254,2.254,0,0,1,1.208-.057,2.446,2.446,0,0,1,1.957,2.437c0,.2,0,.391,0,.591a2.332,2.332,0,0,1,1.543.125,2.083,2.083,0,0,1,1.186,1.99c0,3.276,0,6.552,0,9.827a10.455,10.455,0,0,1-.534,3.358,5.843,5.843,0,0,1-1.245,2.12,5.909,5.909,0,0,1-3.458,1.781c-.526.093-1.062.131-1.594.194Zm6.779-12.11h0q0-2.541,0-5.083a2.054,2.054,0,0,0-.006-.265.628.628,0,0,0-.4-.525.58.58,0,0,0-.628.112.7.7,0,0,0-.226.582q.007,1.831,0,3.661a1.557,1.557,0,0,1-.033.358.714.714,0,0,1-.735.535.715.715,0,0,1-.667-.645c-.009-.1-.007-.192-.008-.289q-.012-3.168-.025-6.335a1,1,0,0,0-.9-1.016.961.961,0,0,0-1.061.738,1.971,1.971,0,0,0-.035.454q-.01,3.059-.016,6.118a2.588,2.588,0,0,1-.011.313.708.708,0,0,1-.9.593c-.36-.1-.534-.372-.534-.837q0-4.155,0-8.311a3.369,3.369,0,0,0-.015-.385,1.006,1.006,0,0,0-1.247-.845,1.065,1.065,0,0,0-.776,1.132q0,4.191,0,8.383a2.229,2.229,0,0,1-.008.289.73.73,0,0,1-.747.644.722.722,0,0,1-.688-.7c0-.088,0-.177,0-.265q0-2.806,0-5.613a.813.813,0,0,0-.688-.83.811.811,0,0,0-.914.6,1.711,1.711,0,0,0-.036.429q0,4.047,0,8.094c0,.072,0,.145,0,.217a1.044,1.044,0,0,1-.757,1.05,1.017,1.017,0,0,1-1.171-.494,13.893,13.893,0,0,0-2.4-2.749.861.861,0,0,0-1.063-.1.554.554,0,0,0-.189.906c.166.226.349.44.518.664,1.709,2.272,3.171,4.708,4.682,7.111a6.04,6.04,0,0,0,3.536,2.678,8.9,8.9,0,0,0,4.632,0,4.051,4.051,0,0,0,2.871-2.348,7.34,7.34,0,0,0,.64-2.966C-700.79,290.076-700.808,288.39-700.808,286.7Z" transform="translate(0)" fill="#fff"/>
  </g>
</svg>
