<svg xmlns="http://www.w3.org/2000/svg" width="16.73" height="16.564" viewBox="0 0 16.73 16.564">
  <g id="close" transform="translate(132.785 -406.852)">
    <g id="Text">
      <g id="Interface-Essential_Form-Validation_close" data-name="Interface-Essential Form-Validation close">
        <g id="Group_395" data-name="Group 395">
          <g id="close-2">
            <path id="Path_9484" data-name="Path 9484" d="M-131.573,423.12a.751.751,0,0,1-.53-.219.75.75,0,0,1,0-1.061l14.768-14.768a.75.75,0,0,1,1.061,0,.75.75,0,0,1,0,1.061L-131.042,422.9A.751.751,0,0,1-131.573,423.12Z" fill="#fff"/>
            <path id="Path_9485" data-name="Path 9485" d="M-116.8,423.12a.751.751,0,0,1-.531-.219L-132.1,408.133a.75.75,0,0,1,0-1.061.75.75,0,0,1,1.061,0l14.768,14.768a.75.75,0,0,1,0,1.061A.751.751,0,0,1-116.8,423.12Z" fill="#fff"/>
          </g>
        </g>
      </g>
      <rect id="Rectangle_171" data-name="Rectangle 171" width="16" height="16" transform="translate(-132.785 407.417)" fill="none"/>
    </g>
  </g>
</svg>
