<svg xmlns="http://www.w3.org/2000/svg" width="24" height="24" viewBox="0 0 24 24">
  <g id="Icons" transform="translate(122.399 -401.442)">
    <g id="Interface-Essential_Text-Formatting_eraser-2" data-name="Interface-Essential Text-Formatting eraser-2">
      <g id="Group_408" data-name="Group 408">
        <g id="eraser-2">
          <path id="Path_9486" data-name="Path 9486" d="M-110.83,419.222a2.25,2.25,0,0,1-1.585-.646l-5.384-5.384,0,0a2.269,2.269,0,0,1,0-3.172l6.873-6.884a2.243,2.243,0,0,1,3.165-.017l5.406,5.4a2.221,2.221,0,0,1,.663,1.577,2.222,2.222,0,0,1-.647,1.588l-6.895,6.9A2.259,2.259,0,0,1-110.83,419.222Zm-5.906-7.087,5.378,5.377a.762.762,0,0,0,1.063,0l6.876-6.876a.75.75,0,0,0,.223-.534.735.735,0,0,0-.22-.523l-5.393-5.382a.742.742,0,0,0-1.056,0l-6.873,6.883A.764.764,0,0,0-116.736,412.135Z" fill="#fff"/>
          <path id="Path_9487" data-name="Path 9487" d="M-117.7,421.342a2.283,2.283,0,0,1-1.6-.655l-1.187-1.2a3.755,3.755,0,0,1,0-5.3l2.42-2.42a.751.751,0,0,1,1.06,0,.75.75,0,0,1,0,1.061l-2.419,2.42a2.252,2.252,0,0,0,0,3.18l1.182,1.191a.777.777,0,0,0,.541.219h3.3a.727.727,0,0,0,.468-.22l1.864-1.852a.749.749,0,0,1,1.06,0,.75.75,0,0,1,0,1.061l-1.86,1.85a2.246,2.246,0,0,1-1.5.657Z" fill="#fff"/>
          <path id="Path_9488" data-name="Path 9488" d="M-99.829,424.352h-16.5a.75.75,0,0,1-.75-.75.75.75,0,0,1,.75-.75h16.5a.75.75,0,0,1,.75.75A.75.75,0,0,1-99.829,424.352Z" fill="#fff"/>
        </g>
      </g>
    </g>
    <rect id="Rectangle_175" data-name="Rectangle 175" width="24" height="24" transform="translate(-122.399 401.442)" fill="none"/>
  </g>
</svg>
