<svg xmlns="http://www.w3.org/2000/svg" width="25.067" height="25.068" viewBox="0 0 25.067 25.068">
  <g id="Group_3777" data-name="Group 3777" transform="translate(-592.919 -388.11)">
    <path id="Path_9477" data-name="Path 9477" d="M612.585,413.178a.75.75,0,0,1-.75-.75V388.86a.75.75,0,0,1,1.5,0v23.568A.75.75,0,0,1,612.585,413.178Z" fill="#fff"/>
    <path id="Path_9478" data-name="Path 9478" d="M605.453,413.178a.75.75,0,0,1-.75-.75V388.86a.75.75,0,0,1,1.5,0v23.568A.75.75,0,0,1,605.453,413.178Z" fill="#fff"/>
    <path id="Path_9479" data-name="Path 9479" d="M598.32,413.178a.75.75,0,0,1-.75-.75V388.86a.75.75,0,0,1,1.5,0v23.568A.75.75,0,0,1,598.32,413.178Z" fill="#fff"/>
    <path id="Path_9480" data-name="Path 9480" d="M617.236,394.262H593.669a.75.75,0,0,1,0-1.5h23.567a.75.75,0,0,1,0,1.5Z" fill="#fff"/>
    <path id="Path_9481" data-name="Path 9481" d="M617.236,401.394H593.669a.75.75,0,0,1,0-1.5h23.567a.75.75,0,0,1,0,1.5Z" fill="#fff"/>
    <path id="Path_9482" data-name="Path 9482" d="M617.236,408.526H593.669a.75.75,0,0,1,0-1.5h23.567a.75.75,0,0,1,0,1.5Z" fill="#fff"/>
  </g>
</svg>
