<svg xmlns="http://www.w3.org/2000/svg" width="24" height="24.001" viewBox="0 0 24 24.001">
  <g id="Layer_2" data-name="Layer 2" transform="translate(136.899 -397.941)">
    <g id="Icons">
      <g id="Interface-Essential_Move_direction-button-arrows" data-name="Interface-Essential Move direction-button-arrows">
        <g id="Group_679" data-name="Group 679">
          <g id="direction-button-arrows">
            <path id="Path_9489" data-name="Path 9489" d="M-121.9,402.441a.747.747,0,0,1-.53-.219l-2.47-2.47-2.47,2.47a.749.749,0,0,1-1.06,0,.75.75,0,0,1,0-1.061l3-3a.749.749,0,0,1,1.06,0l3,3a.75.75,0,0,1,0,1.061A.747.747,0,0,1-121.9,402.441Z" fill="#fff"/>
            <path id="Path_9490" data-name="Path 9490" d="M-124.9,421.941a.747.747,0,0,1-.53-.219l-3-3a.75.75,0,0,1,0-1.061.749.749,0,0,1,1.06,0l2.47,2.47,2.47-2.47a.749.749,0,0,1,1.06,0,.75.75,0,0,1,0,1.061l-3,3A.747.747,0,0,1-124.9,421.941Z" fill="#fff"/>
            <path id="Path_9491" data-name="Path 9491" d="M-124.9,421.941a.75.75,0,0,1-.75-.75v-22.5a.75.75,0,0,1,.75-.75.75.75,0,0,1,.75.75v22.5A.75.75,0,0,1-124.9,421.941Z" fill="#fff"/>
            <path id="Path_9492" data-name="Path 9492" d="M-133.149,413.691a.747.747,0,0,1-.53-.219l-3-3a.75.75,0,0,1,0-1.061l3-3a.749.749,0,0,1,1.06,0,.75.75,0,0,1,0,1.061l-2.469,2.469,2.469,2.47a.75.75,0,0,1,0,1.061A.747.747,0,0,1-133.149,413.691Z" fill="#fff"/>
            <path id="Path_9493" data-name="Path 9493" d="M-116.649,413.691a.747.747,0,0,1-.53-.219.75.75,0,0,1,0-1.061l2.47-2.47-2.47-2.469a.75.75,0,0,1,0-1.061.749.749,0,0,1,1.06,0l3,3a.75.75,0,0,1,0,1.061l-3,3A.747.747,0,0,1-116.649,413.691Z" fill="#fff"/>
            <path id="Path_9494" data-name="Path 9494" d="M-113.649,410.691h-22.5a.75.75,0,0,1-.75-.75.75.75,0,0,1,.75-.75h22.5a.75.75,0,0,1,.75.75A.75.75,0,0,1-113.649,410.691Z" fill="#fff"/>
          </g>
        </g>
      </g>
      <rect id="Rectangle_176" data-name="Rectangle 176" width="24" height="24" transform="translate(-136.899 397.942)" fill="none"/>
    </g>
  </g>
</svg>
