<svg xmlns="http://www.w3.org/2000/svg" width="24" height="24.001" viewBox="0 0 24 24.001">
  <g id="Layer_2-3" data-name="Layer 2-3" transform="translate(146.899 -439.941)">
    <g id="Icons-2">
      <g id="Interface-Essential_Text-Formatting_text-format" data-name="Interface-Essential Text-Formatting text-format">
        <g id="Group_425" data-name="Group 425">
          <g id="text-format">
            <path id="Path_9497" data-name="Path 9497" d="M-131.149,449.691a.75.75,0,0,1-.75-.75v-.75h-6v.75a.75.75,0,0,1-.75.75.75.75,0,0,1-.75-.75v-1.129a1.129,1.129,0,0,1,1.13-1.121h6.75a1.129,1.129,0,0,1,1.12,1.13v1.12A.75.75,0,0,1-131.149,449.691Z" fill="#fff"/>
            <path id="Path_9498" data-name="Path 9498" d="M-134.9,457.191a.75.75,0,0,1-.75-.75v-9a.75.75,0,0,1,.75-.75.75.75,0,0,1,.75.75v9A.75.75,0,0,1-134.9,457.191Z" fill="#fff"/>
            <path id="Path_9499" data-name="Path 9499" d="M-133.769,457.191h-2.25a.75.75,0,0,1-.75-.75.75.75,0,0,1,.75-.75h2.25a.75.75,0,0,1,.75.75A.75.75,0,0,1-133.769,457.191Z" fill="#fff"/>
            <path id="Path_9500" data-name="Path 9500" d="M-143.9,456.441a.75.75,0,0,1-.75-.75v-7.5a.75.75,0,0,1,.75-.75.75.75,0,0,1,.75.75v7.5A.75.75,0,0,1-143.9,456.441Z" fill="#fff"/>
            <path id="Path_9501" data-name="Path 9501" d="M-142.209,445.941h-3.38a1.311,1.311,0,0,1-1.31-1.309v-3.38a1.312,1.312,0,0,1,1.31-1.311h3.38a1.312,1.312,0,0,1,1.31,1.311v3.38A1.311,1.311,0,0,1-142.209,445.941Zm-3.19-1.5h3v-3h-3Zm3.19-3h0Z" fill="#fff"/>
            <path id="Path_9502" data-name="Path 9502" d="M-142.209,463.941h-3.38a1.311,1.311,0,0,1-1.31-1.309v-3.38a1.312,1.312,0,0,1,1.31-1.311h3.38a1.312,1.312,0,0,1,1.31,1.311v3.38A1.311,1.311,0,0,1-142.209,463.941Zm-3.19-1.5h3v-3h-3Zm3.19-3h0Z" fill="#fff"/>
            <path id="Path_9503" data-name="Path 9503" d="M-125.9,456.441a.75.75,0,0,1-.75-.75v-7.5a.75.75,0,0,1,.75-.75.75.75,0,0,1,.75.75v7.5A.75.75,0,0,1-125.9,456.441Z" fill="#fff"/>
            <path id="Path_9504" data-name="Path 9504" d="M-131.149,443.691h-7.5a.75.75,0,0,1-.75-.75.75.75,0,0,1,.75-.75h7.5a.75.75,0,0,1,.75.75A.75.75,0,0,1-131.149,443.691Z" fill="#fff"/>
            <path id="Path_9505" data-name="Path 9505" d="M-131.149,461.691h-7.5a.75.75,0,0,1-.75-.75.75.75,0,0,1,.75-.75h7.5a.75.75,0,0,1,.75.75A.75.75,0,0,1-131.149,461.691Z" fill="#fff"/>
            <path id="Path_9506" data-name="Path 9506" d="M-124.209,445.941h-3.38a1.311,1.311,0,0,1-1.31-1.309v-3.38a1.312,1.312,0,0,1,1.31-1.311h3.38a1.312,1.312,0,0,1,1.31,1.311v3.38A1.311,1.311,0,0,1-124.209,445.941Zm-3.19-1.5h3v-3h-3Zm3.19-3h0Z" fill="#fff"/>
            <path id="Path_9507" data-name="Path 9507" d="M-124.209,463.941h-3.38a1.311,1.311,0,0,1-1.31-1.309v-3.38a1.312,1.312,0,0,1,1.31-1.311h3.38a1.312,1.312,0,0,1,1.31,1.311v3.38A1.311,1.311,0,0,1-124.209,463.941Zm-3.19-1.5h3v-3h-3Zm3.19-3h0Z" fill="#fff"/>
          </g>
        </g>
      </g>
      <rect id="Rectangle_180" data-name="Rectangle 180" width="24" height="24" transform="translate(-146.899 439.942)" fill="none"/>
    </g>
  </g>
</svg>
