<svg xmlns="http://www.w3.org/2000/svg" width="24" height="24" viewBox="0 0 24 24">
  <g id="Layer_2-2" data-name="Layer 2-2" transform="translate(97.899 -362.942)">
    <g id="Text">
      <g id="Design_Colors_Painting_color-brush-3" data-name="Design Colors Painting color-brush-3">
        <g id="Group_58" data-name="Group 58">
          <g id="color-brush-3">
            <path id="Path_9495" data-name="Path 9495" d="M-93.52,386.886a7.671,7.671,0,0,1-3.308-.755,1.276,1.276,0,0,1-.74-1.229,1.3,1.3,0,0,1,.795-1.15c1.278-.516,1.492-1.533,1.693-3.148a6.759,6.759,0,0,1,.51-2.158,4.693,4.693,0,0,1,6.2-2.183,4.336,4.336,0,0,1,2.064,6.178A8.189,8.189,0,0,1-93.52,386.886Zm-2.271-1.938a6.563,6.563,0,0,0,8.136-3.163,2.87,2.87,0,0,0-1.367-4.172,3.19,3.19,0,0,0-4.2,1.495,5.642,5.642,0,0,0-.367,1.681C-93.762,382.157-93.991,384-95.791,384.948Z" fill="#fff"/>
            <path id="Path_9496" data-name="Path 9496" d="M-84,377.781a.742.742,0,0,1-.465-.162.749.749,0,0,1-.122-1.054l8.779-11.089a.6.6,0,0,0-.124-.83.6.6,0,0,0-.774.042l-9.9,9.787a.748.748,0,0,1-1.06-.006.749.749,0,0,1,.006-1.061l9.91-9.8a2.1,2.1,0,0,1,2.723-.156,2.1,2.1,0,0,1,.4,2.944l-8.789,11.1A.748.748,0,0,1-84,377.781Z" fill="#fff"/>
          </g>
        </g>
      </g>
      <rect id="Rectangle_174" data-name="Rectangle 174" width="24" height="24" transform="translate(-97.899 362.942)" fill="none"/>
    </g>
  </g>
</svg>
