<svg xmlns="http://www.w3.org/2000/svg" width="21.097" height="21.107" viewBox="0 0 21.097 21.107">
    <g id="Layer_2" data-name="Layer 2" transform="translate(65.63 -239.199)">
      <g id="Text">
        <g id="Interface-Essential_Zoom_zoom-in" data-name="Interface-Essential Zoom zoom-in">
          <g id="Group_344" data-name="Group 344">
            <g id="zoom-in">
              <path id="Path_9511" data-name="Path 9511" d="M-53.215,256.564a8.692,8.692,0,0,1-8.682-8.682h0a8.623,8.623,0,0,1,2.545-6.142,8.627,8.627,0,0,1,6.136-2.541,8.692,8.692,0,0,1,8.683,8.682,8.623,8.623,0,0,1-2.543,6.139,8.628,8.628,0,0,1-6.139,2.544Zm0-15.865a7.139,7.139,0,0,0-5.076,2.1,7.14,7.14,0,0,0-2.1,5.081h0a7.19,7.19,0,0,0,7.182,7.182,7.139,7.139,0,0,0,5.079-2.1,7.138,7.138,0,0,0,2.1-5.079,7.191,7.191,0,0,0-7.186-7.183Z" fill="#fff"/>
              <path id="Path_9512" data-name="Path 9512" d="M-49.213,248.58h-7.88a.75.75,0,0,1-.75-.75.75.75,0,0,1,.75-.75h7.88a.75.75,0,0,1,.75.75.75.75,0,0,1-.75.75Z" fill="#fff"/>
              <path id="Path_9514" data-name="Path 9514" d="M-63.444,258.964a.747.747,0,0,1-.525-.214.75.75,0,0,1-.011-1.061l4.626-4.719a.752.752,0,0,1,1.061-.011.751.751,0,0,1,.01,1.061l-4.626,4.719a.747.747,0,0,1-.535.225Z" fill="#fff"/>
            </g>
          </g>
        </g>
        <rect id="Rectangle_3353" data-name="Rectangle 3353" width="21" height="21" transform="translate(-65.63 239.306)" fill="none"/>
      </g>
    </g>
  </svg>
